<svg width="16" height="16" viewBox="0 0 16 16" fill="none" xmlns="http://www.w3.org/2000/svg">
<g id="Action" clip-path="url(#clip0_125_2604)">
<path id="Vector" d="M8.43153 16C7.9668 16 7.36929 15.6667 6.43983 13.6C5.77593 12.1333 3.51867 6.46667 4.84647 4.93333C6.24066 3.46667 12.0166 5.66667 12.6805 5.93333C16 7.26667 16 8 16 8.33333C16 9.93333 13.61 10.4 11.8838 10.7333C11.5519 10.7333 11.2863 10.8667 11.1535 10.8667C10.9322 10.9111 10.7994 11.0444 10.7552 11.2667C10.0913 14.4 9.75934 15.8667 8.56431 15.9333L8.43153 16ZM5.77593 5.8C5.24481 6.66667 7.3029 13.2667 8.43153 14.5333C8.69709 14.0667 9.02905 12.5333 9.361 11.0667C9.56017 10.2 9.89212 9.86667 10.6888 9.66667C10.888 9.66667 11.1535 9.53333 11.5519 9.46667C13.8755 9 14.473 8.6 14.6058 8.46667C13.9419 7.86667 10.556 6.4 7.83402 5.93333C6.30705 5.66667 5.84232 5.86667 5.77593 5.93333V5.8ZM2.12448 10.1333C1.92531 10.1333 1.79253 10.1333 1.65975 9.93333C1.39419 9.66667 1.39419 9.26667 1.65975 9L2.39004 8.26667C2.6556 8 3.05394 8 3.3195 8.26667C3.58506 8.53333 3.58506 8.93333 3.3195 9.2L2.58921 9.93333C2.45643 10.0667 2.25726 10.1333 2.12448 10.1333ZM1.72614 6.46667H0.6639C0.26556 6.46667 0 6.2 0 5.8C0 5.4 0.26556 5.13333 0.6639 5.13333H1.72614C2.12448 5.13333 2.39004 5.4 2.39004 5.8C2.39004 6.2 2.12448 6.46667 1.72614 6.46667ZM8.69709 3.53333C8.49792 3.53333 8.36514 3.53333 8.23236 3.33333C7.9668 3.06667 7.9668 2.66667 8.23236 2.4L8.96266 1.66667C9.22822 1.4 9.62656 1.4 9.89212 1.66667C10.1577 1.93333 10.1577 2.33333 9.89212 2.6L9.16183 3.33333C9.02905 3.46667 8.82987 3.53333 8.69709 3.53333ZM2.85477 3.53333C2.6556 3.53333 2.52282 3.53333 2.39004 3.33333L1.65975 2.6C1.39419 2.33333 1.39419 1.93333 1.65975 1.66667C1.92531 1.4 2.32365 1.4 2.58921 1.66667L3.3195 2.4C3.58506 2.66667 3.58506 3.06667 3.3195 3.33333C3.18672 3.46667 2.98755 3.53333 2.85477 3.53333ZM5.77593 2.4C5.37759 2.4 5.11203 2.13333 5.11203 1.73333V0.666667C5.11203 0.266667 5.44398 0 5.77593 0C6.10788 0 6.43983 0.266667 6.43983 0.666667V1.73333C6.43983 2.13333 6.17427 2.4 5.77593 2.4Z" fill="black"/>
</g>
<defs>
<clipPath id="clip0_125_2604">
<rect width="16" height="16" fill="white"/>
</clipPath>
</defs>
</svg>
